<svg xmlns="http://www.w3.org/2000/svg" xmlns:xlink="http://www.w3.org/1999/xlink" width="1366" zoomAndPan="magnify" viewBox="0 0 1024.5 225" height="300" preserveAspectRatio="xMidYMid meet" version="1.0"><defs><g/><clipPath id="8487145923"><path d="M 0 0.0546875 L 1024 0.0546875 L 1024 224.945312 L 0 224.945312 Z M 0 0.0546875 " clip-rule="nonzero"/></clipPath></defs><g clip-path="url(#8487145923)"><path fill="#ffffff" d="M 0 0.0546875 L 1024 0.0546875 L 1024 224.945312 L 0 224.945312 Z M 0 0.0546875 " fill-opacity="1" fill-rule="nonzero"/><path fill="#000000" d="M 0 0.0546875 L 1024 0.0546875 L 1024 224.945312 L 0 224.945312 Z M 0 0.0546875 " fill-opacity="1" fill-rule="nonzero"/></g><path stroke-linecap="butt" transform="matrix(0.836738, 0, 0, 0.836738, 43.478779, 99.859826)" fill="none" stroke-linejoin="miter" d="M 52.293055 71.099583 L 41.504323 45.806053 L 16.990421 45.806053 L 5.809541 71.099583 L 3.489334 71.099583 L 32.008746 7.011436 L 32.592299 7.011436 L 60.009962 71.099583 Z M 17.798058 44.195446 L 40.794723 44.195446 L 29.492464 17.800168 Z M 101.713008 8.206553 C 103.972526 8.206553 106.521487 8.411964 109.350553 8.818117 C 112.184287 9.210265 115.018021 9.971218 117.847087 11.110314 C 120.680822 12.235405 123.262461 13.897364 125.587337 16.091524 C 127.930887 18.290353 129.821599 21.226792 131.250137 24.905512 C 132.683344 28.570226 133.402281 33.135946 133.402281 38.602672 C 133.402281 44.265473 132.594644 49.01793 130.984037 52.860044 C 129.387435 56.683485 127.286644 59.787988 124.686331 62.164216 C 122.095355 64.521771 119.312973 66.337789 116.334517 67.607601 C 113.374736 68.877412 110.508322 69.745739 107.739946 70.21725 C 104.976238 70.674756 102.604678 70.936188 100.634602 71.001546 C 98.6832 71.066904 97.436731 71.099583 96.899862 71.099583 L 75.709878 71.099583 L 75.709878 8.206553 Z M 96.801825 69.390939 C 100.205107 69.390939 103.641068 68.924097 107.10504 67.99508 C 110.57368 67.070732 113.738873 65.47413 116.605286 63.209944 C 119.467031 60.931752 121.763896 57.799238 123.486545 53.812403 C 125.227868 49.806894 126.100864 44.736984 126.100864 38.602672 C 126.100864 33.738173 125.498637 29.601948 124.294183 26.198665 C 123.103734 22.800052 121.493128 20.031675 119.462363 17.898205 C 117.426929 15.769403 115.172079 14.140122 112.697814 13.015032 C 110.237554 11.875936 107.725941 11.086972 105.153638 10.64814 C 102.581336 10.209308 100.163091 9.989892 97.903573 9.989892 L 82.913258 9.989892 L 82.913258 69.390939 Z M 229.89397 71.099583 L 219.105238 45.806053 L 194.591336 45.806053 L 183.410456 71.099583 L 181.094917 71.099583 L 209.609661 7.011436 L 210.193214 7.011436 L 237.610878 71.099583 Z M 195.398973 44.195446 L 218.395638 44.195446 L 207.093379 17.800168 Z M 290.910293 39.092857 L 306.997687 39.092857 L 306.997687 67.607601 C 306.997687 67.607601 306.110686 68.037096 304.336685 68.900754 C 302.576688 69.764413 300.130433 70.623403 296.988583 71.487062 C 293.865406 72.369395 290.200692 72.808227 286.003777 72.808227 C 283.464154 72.808227 280.714451 72.523453 277.750001 71.953905 C 274.785551 71.384357 271.816432 70.36664 268.837976 68.900754 C 265.878195 67.434869 263.156502 65.460125 260.682237 62.967186 C 258.226645 60.460241 256.247233 57.327727 254.753336 53.569645 C 253.254772 49.792888 252.507824 45.236505 252.507824 39.895826 C 252.507824 34.10231 253.432172 29.1211 255.290205 24.956864 C 257.162244 20.78796 259.715873 17.384678 262.95576 14.751686 C 266.195648 12.114025 269.874367 10.167292 273.991918 8.916154 C 278.123475 7.646342 282.427763 7.011436 286.904783 7.011436 C 290.695545 7.011436 293.977448 7.212179 296.745825 7.623 C 299.509533 8.010479 301.628998 8.411964 303.090215 8.818117 C 304.574774 9.210265 305.312386 9.40167 305.312386 9.40167 L 305.312386 11.502462 C 305.312386 11.502462 304.58878 11.273709 303.141568 10.820872 C 301.708361 10.349361 299.626243 9.873181 296.890546 9.40167 C 294.173522 8.930159 290.844935 8.696738 286.904783 8.696738 C 284.836671 8.696738 282.567816 8.948833 280.093551 9.453023 C 277.637959 9.957213 275.219714 10.876893 272.843486 12.212062 C 270.481262 13.528558 268.319781 15.358581 266.349706 17.702131 C 264.37963 20.031675 262.792365 23.019468 261.587911 26.665508 C 260.397463 30.292875 259.804573 34.704537 259.804573 39.895826 C 259.804573 47.692097 260.985685 53.877761 263.347908 58.452818 C 265.724137 63.023207 268.936013 66.295773 272.988207 68.265849 C 277.059074 70.21725 281.694821 71.19762 286.904783 71.19762 C 289.444407 71.19762 291.811299 70.968867 294.010127 70.511361 C 296.208956 70.03985 298.137015 69.502981 299.794307 68.900754 L 299.794307 40.703464 L 290.910293 40.703464 Z M 355.894777 9.891855 L 331.212811 9.891855 L 331.212811 37.407555 L 353.210432 37.407555 L 353.210432 39.092857 L 331.212811 39.092857 L 331.212811 69.390939 L 355.894777 69.390939 L 355.894777 71.099583 L 324.014099 71.099583 L 324.014099 8.206553 L 355.894777 8.206553 Z M 423.311511 8.206553 L 423.311511 72.808227 L 422.994058 72.808227 L 373.896226 18.411732 L 373.896226 71.099583 L 372.210924 71.099583 L 372.210924 7.011436 L 372.505035 7.011436 L 421.602867 61.403263 L 421.602867 8.206553 Z M 492.614289 65.310735 L 492.614289 67.607601 C 492.614289 67.607601 491.872009 68.037096 490.392119 68.900754 C 488.926233 69.764413 486.764752 70.623403 483.898338 71.487062 C 481.036594 72.369395 477.502595 72.808227 473.301012 72.808227 C 470.766057 72.808227 468.011686 72.523453 465.051904 71.953905 C 462.087454 71.384357 459.118335 70.36664 456.13988 68.900754 C 453.180098 67.434869 450.458406 65.460125 447.98414 62.967186 C 445.528548 60.460241 443.549136 57.327727 442.05524 53.569645 C 440.556675 49.792888 439.805059 45.236505 439.805059 39.895826 C 439.805059 34.10231 440.734075 29.1211 442.592109 24.956864 C 444.464147 20.78796 447.017776 17.384678 450.257664 14.751686 C 453.497551 12.114025 457.171602 10.167292 461.289153 8.916154 C 465.425378 7.646342 469.729667 7.011436 474.206687 7.011436 C 477.997449 7.011436 481.279352 7.361568 484.04306 8.061832 C 486.811436 8.762096 488.926233 9.443686 490.392119 10.111271 C 491.872009 10.778856 492.614289 11.110314 492.614289 11.110314 L 492.614289 13.309142 C 492.614289 13.309142 491.890683 12.926332 490.443471 12.16071 C 489.010265 11.381083 486.928147 10.606124 484.192449 9.840502 C 481.475426 9.079549 478.146838 8.696738 474.206687 8.696738 C 472.26929 8.696738 470.098472 8.948833 467.689565 9.453023 C 465.294662 9.957213 462.895092 10.876893 460.486184 12.212062 C 458.091282 13.528558 455.878448 15.358581 453.843014 17.702131 C 451.812249 20.031675 450.173632 23.019468 448.936499 26.665508 C 447.71804 30.292875 447.106476 34.704537 447.106476 39.895826 C 447.106476 46.440959 447.970135 51.776969 449.692784 55.913194 C 451.434107 60.030746 453.688956 63.195938 456.457333 65.408772 C 459.225709 67.607601 462.171486 69.12017 465.294662 69.95115 C 468.436513 70.78213 471.405632 71.19762 474.206687 71.19762 C 478.062806 71.19762 481.358715 70.716772 484.094412 69.755076 C 486.83011 68.779375 488.926233 67.794338 490.392119 66.799963 C 491.872009 65.810257 492.614289 65.310735 492.614289 65.310735 Z M 552.907006 8.206553 L 554.811723 8.206553 L 534.793514 41.702507 L 534.793514 71.099583 L 527.613476 71.099583 L 527.613476 43.705261 L 507.301156 8.206553 L 515.601617 8.206553 L 533.817813 40.0919 Z M 654.515289 65.310735 L 654.515289 67.607601 C 654.515289 67.607601 653.777678 68.037096 652.293118 68.900754 C 650.831901 69.764413 648.665752 70.623403 645.799338 71.487062 C 642.937593 72.369395 639.403595 72.808227 635.206681 72.808227 C 632.667057 72.808227 629.912686 72.523453 626.952904 71.953905 C 623.988454 71.384357 621.019335 70.36664 618.04088 68.900754 C 615.081098 67.434869 612.359406 65.460125 609.88514 62.967186 C 607.429548 60.460241 605.450136 57.327727 603.95624 53.569645 C 602.457675 49.792888 601.710727 45.236505 601.710727 39.895826 C 601.710727 34.10231 602.635075 29.1211 604.493109 24.956864 C 606.365147 20.78796 608.918776 17.384678 612.158663 14.751686 C 615.398551 12.114025 619.07727 10.167292 623.194822 8.916154 C 627.326378 7.646342 631.630667 7.011436 636.107687 7.011436 C 639.898448 7.011436 643.180352 7.361568 645.948728 8.061832 C 648.712436 8.762096 650.831901 9.443686 652.293118 10.111271 C 653.777678 10.778856 654.515289 11.110314 654.515289 11.110314 L 654.515289 13.309142 C 654.515289 13.309142 653.791683 12.926332 652.344471 12.16071 C 650.911264 11.381083 648.829147 10.606124 646.093449 9.840502 C 643.376425 9.079549 640.047838 8.696738 636.107687 8.696738 C 634.17029 8.696738 631.999472 8.948833 629.590565 9.453023 C 627.195662 9.957213 624.796092 10.876893 622.387184 12.212062 C 619.99695 13.528558 617.779448 15.358581 615.748683 17.702131 C 613.713249 20.031675 612.074632 23.019468 610.837499 26.665508 C 609.61904 30.292875 609.007476 34.704537 609.007476 39.895826 C 609.007476 46.440959 609.871135 51.776969 611.598452 55.913194 C 613.339775 60.030746 615.589956 63.195938 618.358333 65.408772 C 621.126709 67.607601 624.072486 69.12017 627.195662 69.95115 C 630.337513 70.78213 633.306631 71.19762 636.107687 71.19762 C 639.963806 71.19762 643.259715 70.716772 645.995412 69.755076 C 648.73111 68.779375 650.831901 67.794338 652.293118 66.799963 C 653.777678 65.810257 654.515289 65.310735 654.515289 65.310735 Z M 714.808005 71.099583 L 705.797944 71.099583 L 682.605206 41.898581 L 678.016143 41.898581 L 678.016143 71.099583 L 670.812763 71.099583 L 670.812763 8.206553 C 670.812763 8.206553 671.564379 8.206553 673.062944 8.206553 C 674.55684 8.206553 676.372858 8.206553 678.506328 8.206553 C 680.63513 8.206553 682.754595 8.206553 684.850718 8.206553 C 686.95151 8.206553 688.604133 8.206553 689.808586 8.206553 C 691.078398 8.206553 692.829058 8.39329 695.055897 8.766764 C 697.287404 9.126233 699.532917 9.840502 701.797103 10.918908 C 704.075295 11.973973 705.994018 13.551901 707.557941 15.652692 C 709.121863 17.753484 709.90149 20.503186 709.90149 23.906469 C 709.90149 27.160361 709.299263 29.86338 708.094809 32.010855 C 706.909029 34.144326 705.345107 35.862306 703.40771 37.160129 C 701.470314 38.448614 699.43488 39.424315 697.306078 40.0919 C 695.172607 40.759485 693.169853 41.230996 691.297814 41.506433 Z M 678.016143 9.891855 L 678.016143 40.189937 L 683.412843 40.189937 C 689.271717 40.189937 693.902796 39.060178 697.306078 36.795992 C 700.704692 34.531805 702.408667 30.63367 702.408667 25.101585 C 702.408667 19.569501 700.956787 15.652692 698.062363 13.360495 C 695.163271 11.044956 691.143756 9.891855 685.999151 9.891855 Z M 762.201862 9.891855 L 737.515228 9.891855 L 737.515228 37.407555 L 759.512849 37.407555 L 759.512849 39.092857 L 737.515228 39.092857 L 737.515228 69.390939 L 762.201862 69.390939 L 762.201862 71.099583 L 730.316515 71.099583 L 730.316515 8.206553 L 762.201862 8.206553 Z M 826.000566 71.099583 L 815.211835 45.806053 L 790.697932 45.806053 L 779.517053 71.099583 L 777.196845 71.099583 L 805.711589 7.011436 L 806.29981 7.011436 L 833.717474 71.099583 Z M 791.50557 44.195446 L 814.502234 44.195446 L 803.199976 17.800168 Z M 893.800111 8.206553 L 893.800111 9.891855 L 874.416808 9.891855 L 874.416808 71.099583 L 867.311465 71.099583 L 867.311465 9.891855 L 847.900151 9.891855 L 847.900151 8.206553 Z M 910.218964 71.099583 L 910.218964 8.206553 L 917.394334 8.206553 L 917.394334 71.099583 Z M 988.401088 8.206553 L 990.697953 8.206553 L 962.206552 72.2947 L 961.716367 72.2947 L 934.205335 8.206553 L 941.917574 8.206553 L 964.694823 61.5013 Z M 1038.101147 9.891855 L 1013.419181 9.891855 L 1013.419181 37.407555 L 1035.416802 37.407555 L 1035.416802 39.092857 L 1013.419181 39.092857 L 1013.419181 69.390939 L 1038.101147 69.390939 L 1038.101147 71.099583 L 1006.2158 71.099583 L 1006.2158 8.206553 L 1038.101147 8.206553 Z M 1052.097087 66.286436 C 1053.838409 67.705637 1056.023233 69.012797 1058.642219 70.21725 C 1061.27988 71.407699 1064.739183 72.000589 1069.015461 72.000589 C 1071.751158 72.000589 1074.281445 71.473057 1076.610989 70.413324 C 1078.935865 69.339586 1080.817241 67.719643 1082.250448 65.553493 C 1083.683654 63.392012 1084.397923 60.674989 1084.397923 57.402422 C 1084.397923 54.601367 1083.828375 52.30917 1082.68928 50.516494 C 1081.564189 48.709814 1080.051619 47.206581 1078.146901 46.002127 C 1076.260858 44.797673 1074.17874 43.761283 1071.900548 42.897624 C 1069.636362 42.038634 1067.35817 41.123622 1065.061305 40.166595 C 1062.769108 39.186225 1060.668316 38.033124 1058.763598 36.697955 C 1056.858881 35.362785 1055.336974 33.644804 1054.197878 31.548681 C 1053.077456 29.44789 1052.512577 26.796224 1052.512577 23.589016 C 1052.512577 20.46117 1053.105467 17.800168 1054.295915 15.606008 C 1055.500369 13.407179 1057.06896 11.623841 1059.006357 10.255992 C 1060.943753 8.892812 1063.011866 7.8891 1065.210694 7.254194 C 1067.404854 6.619289 1069.505646 6.301836 1071.5084 6.301836 C 1074.17874 6.301836 1076.559637 6.619289 1078.660428 7.254194 C 1080.76122 7.8891 1082.423179 8.524006 1083.641638 9.158912 C 1084.878771 9.793818 1085.495003 10.111271 1085.495003 10.111271 L 1085.621051 12.090683 C 1085.621051 12.090683 1085.032829 11.763894 1083.861054 11.110314 C 1082.68928 10.442729 1081.055331 9.761139 1078.954539 9.060875 C 1076.853748 8.360611 1074.370145 8.010479 1071.5084 8.010479 C 1067.241459 8.010479 1063.922209 9.280291 1061.54598 11.819915 C 1059.188425 14.340864 1058.007313 17.403352 1058.007313 20.998039 C 1058.007313 23.995169 1058.786941 26.427418 1060.350863 28.299457 C 1061.928791 30.171496 1063.931546 31.726081 1066.354458 32.963214 C 1068.796045 34.181673 1071.377684 35.34878 1074.094708 36.455197 C 1076.830405 37.54294 1079.412045 38.812751 1081.834958 40.264632 C 1084.276544 41.69317 1086.260625 43.574546 1087.791869 45.90409 C 1089.337118 48.228966 1090.112076 51.230764 1090.112076 54.909483 C 1090.112076 58.639555 1089.108365 61.902784 1087.110279 64.699171 C 1085.107524 67.500227 1082.483869 69.666376 1079.24865 71.19762 C 1076.022768 72.724195 1072.614817 73.489817 1069.015461 73.489817 C 1065.4021 73.489817 1062.344281 73.093001 1059.837336 72.2947 C 1057.349065 71.496399 1055.435011 70.698098 1054.099841 69.899798 C 1052.764671 69.106165 1052.097087 68.704681 1052.097087 68.704681 Z M 1052.097087 66.286436 " stroke="#fdfdfd" stroke-width="4.250298" stroke-opacity="1" stroke-miterlimit="4"/><g fill="#ffffff" fill-opacity="1"><g transform="translate(43.478779, 159.268238)"><g><path d="M 43.765625 0.078125 L 34.71875 -21.078125 L 14.21875 -21.078125 L 4.859375 0.078125 L 2.921875 0.078125 L 26.78125 -53.546875 L 27.28125 -53.546875 L 50.203125 0.078125 Z M 14.890625 -22.421875 L 34.140625 -22.421875 L 24.6875 -44.515625 Z M 14.890625 -22.421875 "/></g></g></g><g fill="#ffffff" fill-opacity="1"><g transform="translate(102.803901, 159.268238)"><g><path d="M 25.765625 -52.546875 C 27.660156 -52.546875 29.796875 -52.378906 32.171875 -52.046875 C 34.546875 -51.710938 36.914062 -51.070312 39.28125 -50.125 C 41.65625 -49.175781 43.816406 -47.78125 45.765625 -45.9375 C 47.722656 -44.09375 49.300781 -41.632812 50.5 -38.5625 C 51.695312 -35.5 52.296875 -31.679688 52.296875 -27.109375 C 52.296875 -22.367188 51.625 -18.394531 50.28125 -15.1875 C 48.945312 -11.976562 47.191406 -9.382812 45.015625 -7.40625 C 42.835938 -5.425781 40.507812 -3.90625 38.03125 -2.84375 C 35.550781 -1.78125 33.148438 -1.050781 30.828125 -0.65625 C 28.515625 -0.269531 26.535156 -0.0507812 24.890625 0 C 23.242188 0.0507812 22.195312 0.078125 21.75 0.078125 L 4.015625 0.078125 L 4.015625 -52.546875 Z M 21.671875 -1.34375 C 24.515625 -1.34375 27.382812 -1.734375 30.28125 -2.515625 C 33.1875 -3.296875 35.835938 -4.632812 38.234375 -6.53125 C 40.628906 -8.425781 42.550781 -11.046875 44 -14.390625 C 45.457031 -17.734375 46.1875 -21.972656 46.1875 -27.109375 C 46.1875 -31.179688 45.679688 -34.640625 44.671875 -37.484375 C 43.671875 -40.328125 42.320312 -42.640625 40.625 -44.421875 C 38.925781 -46.210938 37.039062 -47.582031 34.96875 -48.53125 C 32.90625 -49.476562 30.800781 -50.132812 28.65625 -50.5 C 26.507812 -50.863281 24.488281 -51.046875 22.59375 -51.046875 L 10.046875 -51.046875 L 10.046875 -1.34375 Z M 21.671875 -1.34375 "/></g></g></g><g fill="#ffffff" fill-opacity="1"><g transform="translate(165.057594, 159.268238)"><g/></g></g><g fill="#ffffff" fill-opacity="1"><g transform="translate(192.084636, 159.268238)"><g><path d="M 43.765625 0.078125 L 34.71875 -21.078125 L 14.21875 -21.078125 L 4.859375 0.078125 L 2.921875 0.078125 L 26.78125 -53.546875 L 27.28125 -53.546875 L 50.203125 0.078125 Z M 14.890625 -22.421875 L 34.140625 -22.421875 L 24.6875 -44.515625 Z M 14.890625 -22.421875 "/></g></g></g><g fill="#ffffff" fill-opacity="1"><g transform="translate(251.409752, 159.268238)"><g><path d="M 35.484375 -26.6875 L 48.953125 -26.6875 L 48.953125 -2.84375 C 48.953125 -2.84375 48.210938 -2.476562 46.734375 -1.75 C 45.253906 -1.03125 43.203125 -0.3125 40.578125 0.40625 C 37.953125 1.132812 34.882812 1.5 31.375 1.5 C 29.257812 1.5 26.957031 1.257812 24.46875 0.78125 C 21.988281 0.3125 19.503906 -0.53125 17.015625 -1.75 C 14.535156 -2.976562 12.265625 -4.640625 10.203125 -6.734375 C 8.140625 -8.828125 6.476562 -11.445312 5.21875 -14.59375 C 3.96875 -17.75 3.34375 -21.554688 3.34375 -26.015625 C 3.34375 -30.867188 4.125 -35.039062 5.6875 -38.53125 C 7.25 -42.019531 9.382812 -44.863281 12.09375 -47.0625 C 14.800781 -49.269531 17.882812 -50.898438 21.34375 -51.953125 C 24.800781 -53.015625 28.394531 -53.546875 32.125 -53.546875 C 35.3125 -53.546875 38.0625 -53.378906 40.375 -53.046875 C 42.6875 -52.710938 44.457031 -52.378906 45.6875 -52.046875 C 46.914062 -51.710938 47.53125 -51.546875 47.53125 -51.546875 L 47.53125 -49.78125 C 47.53125 -49.78125 46.925781 -49.972656 45.71875 -50.359375 C 44.519531 -50.753906 42.773438 -51.144531 40.484375 -51.53125 C 38.203125 -51.925781 35.414062 -52.125 32.125 -52.125 C 30.394531 -52.125 28.5 -51.914062 26.4375 -51.5 C 24.375 -51.082031 22.351562 -50.316406 20.375 -49.203125 C 18.394531 -48.085938 16.582031 -46.550781 14.9375 -44.59375 C 13.289062 -42.644531 11.960938 -40.148438 10.953125 -37.109375 C 9.953125 -34.066406 9.453125 -30.367188 9.453125 -26.015625 C 9.453125 -19.492188 10.441406 -14.320312 12.421875 -10.5 C 14.398438 -6.675781 17.09375 -3.941406 20.5 -2.296875 C 23.90625 -0.648438 27.78125 0.171875 32.125 0.171875 C 34.25 0.171875 36.226562 -0.0195312 38.0625 -0.40625 C 39.90625 -0.800781 41.523438 -1.25 42.921875 -1.75 L 42.921875 -25.359375 L 35.484375 -25.359375 Z M 35.484375 -26.6875 "/></g></g></g><g fill="#ffffff" fill-opacity="1"><g transform="translate(310.567509, 159.268238)"><g><path d="M 30.703125 -51.125 L 10.046875 -51.125 L 10.046875 -28.109375 L 28.453125 -28.109375 L 28.453125 -26.6875 L 10.046875 -26.6875 L 10.046875 -1.34375 L 30.703125 -1.34375 L 30.703125 0.078125 L 4.015625 0.078125 L 4.015625 -52.546875 L 30.703125 -52.546875 Z M 30.703125 -51.125 "/></g></g></g><g fill="#ffffff" fill-opacity="1"><g transform="translate(350.898683, 159.268238)"><g><path d="M 46.765625 -52.546875 L 46.765625 1.5 L 46.515625 1.5 L 5.4375 -44.015625 L 5.4375 0.078125 L 4.015625 0.078125 L 4.015625 -53.546875 L 4.265625 -53.546875 L 45.34375 -8.03125 L 45.34375 -52.546875 Z M 46.765625 -52.546875 "/></g></g></g><g fill="#ffffff" fill-opacity="1"><g transform="translate(408.131954, 159.268238)"><g><path d="M 47.53125 -4.765625 L 47.53125 -2.84375 C 47.53125 -2.84375 46.914062 -2.476562 45.6875 -1.75 C 44.457031 -1.03125 42.640625 -0.3125 40.234375 0.40625 C 37.835938 1.132812 34.882812 1.5 31.375 1.5 C 29.257812 1.5 26.957031 1.257812 24.46875 0.78125 C 21.988281 0.3125 19.503906 -0.53125 17.015625 -1.75 C 14.535156 -2.976562 12.265625 -4.640625 10.203125 -6.734375 C 8.140625 -8.828125 6.476562 -11.445312 5.21875 -14.59375 C 3.96875 -17.75 3.34375 -21.554688 3.34375 -26.015625 C 3.34375 -30.867188 4.125 -35.039062 5.6875 -38.53125 C 7.25 -42.019531 9.382812 -44.863281 12.09375 -47.0625 C 14.800781 -49.269531 17.882812 -50.898438 21.34375 -51.953125 C 24.800781 -53.015625 28.394531 -53.546875 32.125 -53.546875 C 35.3125 -53.546875 38.0625 -53.253906 40.375 -52.671875 C 42.6875 -52.085938 44.457031 -51.515625 45.6875 -50.953125 C 46.914062 -50.398438 47.53125 -50.125 47.53125 -50.125 L 47.53125 -48.28125 C 47.53125 -48.28125 46.925781 -48.597656 45.71875 -49.234375 C 44.519531 -49.878906 42.773438 -50.519531 40.484375 -51.15625 C 38.203125 -51.800781 35.414062 -52.125 32.125 -52.125 C 30.507812 -52.125 28.695312 -51.914062 26.6875 -51.5 C 24.675781 -51.082031 22.664062 -50.316406 20.65625 -49.203125 C 18.65625 -48.085938 16.800781 -46.550781 15.09375 -44.59375 C 13.394531 -42.644531 12.03125 -40.148438 11 -37.109375 C 9.96875 -34.066406 9.453125 -30.367188 9.453125 -26.015625 C 9.453125 -20.554688 10.175781 -16.097656 11.625 -12.640625 C 13.082031 -9.179688 14.96875 -6.53125 17.28125 -4.6875 C 19.59375 -2.84375 22.054688 -1.570312 24.671875 -0.875 C 27.296875 -0.175781 29.78125 0.171875 32.125 0.171875 C 35.363281 0.171875 38.125 -0.234375 40.40625 -1.046875 C 42.695312 -1.859375 44.457031 -2.679688 45.6875 -3.515625 C 46.914062 -4.347656 47.53125 -4.765625 47.53125 -4.765625 Z M 47.53125 -4.765625 "/></g></g></g><g fill="#ffffff" fill-opacity="1"><g transform="translate(465.281546, 159.268238)"><g><path d="M 40.828125 -52.546875 L 42.421875 -52.546875 L 25.6875 -24.515625 L 25.6875 0.078125 L 19.65625 0.078125 L 19.65625 -22.84375 L 2.671875 -52.546875 L 9.625 -52.546875 L 24.84375 -25.859375 Z M 40.828125 -52.546875 "/></g></g></g><g fill="#ffffff" fill-opacity="1"><g transform="translate(516.573995, 159.268238)"><g/></g></g><g fill="#ffffff" fill-opacity="1"><g transform="translate(543.601037, 159.268238)"><g><path d="M 47.53125 -4.765625 L 47.53125 -2.84375 C 47.53125 -2.84375 46.914062 -2.476562 45.6875 -1.75 C 44.457031 -1.03125 42.640625 -0.3125 40.234375 0.40625 C 37.835938 1.132812 34.882812 1.5 31.375 1.5 C 29.257812 1.5 26.957031 1.257812 24.46875 0.78125 C 21.988281 0.3125 19.503906 -0.53125 17.015625 -1.75 C 14.535156 -2.976562 12.265625 -4.640625 10.203125 -6.734375 C 8.140625 -8.828125 6.476562 -11.445312 5.21875 -14.59375 C 3.96875 -17.75 3.34375 -21.554688 3.34375 -26.015625 C 3.34375 -30.867188 4.125 -35.039062 5.6875 -38.53125 C 7.25 -42.019531 9.382812 -44.863281 12.09375 -47.0625 C 14.800781 -49.269531 17.882812 -50.898438 21.34375 -51.953125 C 24.800781 -53.015625 28.394531 -53.546875 32.125 -53.546875 C 35.3125 -53.546875 38.0625 -53.253906 40.375 -52.671875 C 42.6875 -52.085938 44.457031 -51.515625 45.6875 -50.953125 C 46.914062 -50.398438 47.53125 -50.125 47.53125 -50.125 L 47.53125 -48.28125 C 47.53125 -48.28125 46.925781 -48.597656 45.71875 -49.234375 C 44.519531 -49.878906 42.773438 -50.519531 40.484375 -51.15625 C 38.203125 -51.800781 35.414062 -52.125 32.125 -52.125 C 30.507812 -52.125 28.695312 -51.914062 26.6875 -51.5 C 24.675781 -51.082031 22.664062 -50.316406 20.65625 -49.203125 C 18.65625 -48.085938 16.800781 -46.550781 15.09375 -44.59375 C 13.394531 -42.644531 12.03125 -40.148438 11 -37.109375 C 9.96875 -34.066406 9.453125 -30.367188 9.453125 -26.015625 C 9.453125 -20.554688 10.175781 -16.097656 11.625 -12.640625 C 13.082031 -9.179688 14.96875 -6.53125 17.28125 -4.6875 C 19.59375 -2.84375 22.054688 -1.570312 24.671875 -0.875 C 27.296875 -0.175781 29.78125 0.171875 32.125 0.171875 C 35.363281 0.171875 38.125 -0.234375 40.40625 -1.046875 C 42.695312 -1.859375 44.457031 -2.679688 45.6875 -3.515625 C 46.914062 -4.347656 47.53125 -4.765625 47.53125 -4.765625 Z M 47.53125 -4.765625 "/></g></g></g><g fill="#ffffff" fill-opacity="1"><g transform="translate(600.750654, 159.268238)"><g><path d="M 40.828125 0.078125 L 33.296875 0.078125 L 13.890625 -24.34375 L 10.046875 -24.34375 L 10.046875 0.078125 L 4.015625 0.078125 L 4.015625 -52.546875 C 4.015625 -52.546875 4.640625 -52.546875 5.890625 -52.546875 C 7.148438 -52.546875 8.671875 -52.546875 10.453125 -52.546875 C 12.242188 -52.546875 14.015625 -52.546875 15.765625 -52.546875 C 17.523438 -52.546875 18.90625 -52.546875 19.90625 -52.546875 C 20.96875 -52.546875 22.429688 -52.390625 24.296875 -52.078125 C 26.171875 -51.773438 28.054688 -51.175781 29.953125 -50.28125 C 31.847656 -49.394531 33.453125 -48.070312 34.765625 -46.3125 C 36.078125 -44.550781 36.734375 -42.25 36.734375 -39.40625 C 36.734375 -36.675781 36.226562 -34.414062 35.21875 -32.625 C 34.21875 -30.84375 32.90625 -29.40625 31.28125 -28.3125 C 29.664062 -27.226562 27.96875 -26.40625 26.1875 -25.84375 C 24.40625 -25.289062 22.734375 -24.90625 21.171875 -24.6875 Z M 10.046875 -51.125 L 10.046875 -25.765625 L 14.5625 -25.765625 C 19.46875 -25.765625 23.34375 -26.710938 26.1875 -28.609375 C 29.03125 -30.503906 30.453125 -33.769531 30.453125 -38.40625 C 30.453125 -43.03125 29.238281 -46.304688 26.8125 -48.234375 C 24.382812 -50.160156 21.023438 -51.125 16.734375 -51.125 Z M 10.046875 -51.125 "/></g></g></g><g fill="#ffffff" fill-opacity="1"><g transform="translate(650.536985, 159.268238)"><g><path d="M 30.703125 -51.125 L 10.046875 -51.125 L 10.046875 -28.109375 L 28.453125 -28.109375 L 28.453125 -26.6875 L 10.046875 -26.6875 L 10.046875 -1.34375 L 30.703125 -1.34375 L 30.703125 0.078125 L 4.015625 0.078125 L 4.015625 -52.546875 L 30.703125 -52.546875 Z M 30.703125 -51.125 "/></g></g></g><g fill="#ffffff" fill-opacity="1"><g transform="translate(690.868184, 159.268238)"><g><path d="M 43.765625 0.078125 L 34.71875 -21.078125 L 14.21875 -21.078125 L 4.859375 0.078125 L 2.921875 0.078125 L 26.78125 -53.546875 L 27.28125 -53.546875 L 50.203125 0.078125 Z M 14.890625 -22.421875 L 34.140625 -22.421875 L 24.6875 -44.515625 Z M 14.890625 -22.421875 "/></g></g></g><g fill="#ffffff" fill-opacity="1"><g transform="translate(750.1933, 159.268238)"><g><path d="M 41.171875 -52.546875 L 41.171875 -51.125 L 24.9375 -51.125 L 24.9375 0.078125 L 19 0.078125 L 19 -51.125 L 2.765625 -51.125 L 2.765625 -52.546875 Z M 41.171875 -52.546875 "/></g></g></g><g fill="#ffffff" fill-opacity="1"><g transform="translate(800.230642, 159.268238)"><g><path d="M 4.859375 0.078125 L 4.859375 -52.546875 L 10.875 -52.546875 L 10.875 0.078125 Z M 4.859375 0.078125 "/></g></g></g><g fill="#ffffff" fill-opacity="1"><g transform="translate(822.404613, 159.268238)"><g><path d="M 48.109375 -52.546875 L 50.03125 -52.546875 L 26.1875 1.09375 L 25.765625 1.09375 L 2.765625 -52.546875 L 9.203125 -52.546875 L 28.28125 -7.953125 Z M 48.109375 -52.546875 "/></g></g></g><g fill="#ffffff" fill-opacity="1"><g transform="translate(881.395013, 159.268238)"><g><path d="M 30.703125 -51.125 L 10.046875 -51.125 L 10.046875 -28.109375 L 28.453125 -28.109375 L 28.453125 -26.6875 L 10.046875 -26.6875 L 10.046875 -1.34375 L 30.703125 -1.34375 L 30.703125 0.078125 L 4.015625 0.078125 L 4.015625 -52.546875 L 30.703125 -52.546875 Z M 30.703125 -51.125 "/></g></g></g><g fill="#ffffff" fill-opacity="1"><g transform="translate(921.726212, 159.268238)"><g><path d="M 2.09375 -3.9375 C 3.539062 -2.757812 5.363281 -1.664062 7.5625 -0.65625 C 9.769531 0.34375 12.660156 0.84375 16.234375 0.84375 C 18.515625 0.84375 20.628906 0.394531 22.578125 -0.5 C 24.535156 -1.394531 26.113281 -2.75 27.3125 -4.5625 C 28.519531 -6.375 29.125 -8.644531 29.125 -11.375 C 29.125 -13.71875 28.644531 -15.640625 27.6875 -17.140625 C 26.738281 -18.648438 25.46875 -19.90625 23.875 -20.90625 C 22.289062 -21.914062 20.550781 -22.78125 18.65625 -23.5 C 16.757812 -24.226562 14.847656 -25 12.921875 -25.8125 C 11.003906 -26.625 9.25 -27.585938 7.65625 -28.703125 C 6.0625 -29.816406 4.789062 -31.25 3.84375 -33 C 2.894531 -34.757812 2.421875 -36.976562 2.421875 -39.65625 C 2.421875 -42.28125 2.921875 -44.507812 3.921875 -46.34375 C 4.929688 -48.1875 6.242188 -49.679688 7.859375 -50.828125 C 9.484375 -51.972656 11.210938 -52.8125 13.046875 -53.34375 C 14.890625 -53.875 16.648438 -54.140625 18.328125 -54.140625 C 20.554688 -54.140625 22.546875 -53.875 24.296875 -53.34375 C 26.054688 -52.8125 27.453125 -52.28125 28.484375 -51.75 C 29.515625 -51.21875 30.03125 -50.953125 30.03125 -50.953125 L 30.125 -49.28125 C 30.125 -49.28125 29.632812 -49.554688 28.65625 -50.109375 C 27.675781 -50.671875 26.304688 -51.242188 24.546875 -51.828125 C 22.796875 -52.421875 20.722656 -52.71875 18.328125 -52.71875 C 14.753906 -52.71875 11.976562 -51.65625 10 -49.53125 C 8.019531 -47.414062 7.03125 -44.847656 7.03125 -41.828125 C 7.03125 -39.328125 7.6875 -37.296875 9 -35.734375 C 10.3125 -34.171875 11.984375 -32.875 14.015625 -31.84375 C 16.046875 -30.8125 18.207031 -29.832031 20.5 -28.90625 C 22.789062 -27.988281 24.953125 -26.929688 26.984375 -25.734375 C 29.015625 -24.535156 30.671875 -22.957031 31.953125 -21 C 33.242188 -19.050781 33.890625 -16.539062 33.890625 -13.46875 C 33.890625 -10.34375 33.050781 -7.609375 31.375 -5.265625 C 29.695312 -2.921875 27.503906 -1.109375 24.796875 0.171875 C 22.097656 1.453125 19.242188 2.09375 16.234375 2.09375 C 13.222656 2.09375 10.671875 1.753906 8.578125 1.078125 C 6.484375 0.410156 4.878906 -0.253906 3.765625 -0.921875 C 2.648438 -1.585938 2.09375 -1.921875 2.09375 -1.921875 Z M 2.09375 -3.9375 "/></g></g></g><g fill="#ffffff" fill-opacity="1"><g transform="translate(965.080532, 159.268238)"><g/></g></g></svg>